<svg width="420" height="104" viewBox="0 0 420 104" fill="none" xmlns="http://www.w3.org/2000/svg">
<path d="M8.528 80.195C7.872 80.195 7.18867 80.0857 6.478 79.867C5.822 79.6483 5.248 79.129 4.756 78.309C4.31867 77.489 4.1 76.2317 4.1 74.537C4.1 73.4437 4.20933 72.0223 4.428 70.273C4.64667 68.469 4.94733 66.1457 5.33 63.303C5.60333 61.499 5.904 59.0937 6.232 56.087C6.61467 53.0257 6.806 49.8277 6.806 46.493C6.806 45.017 6.75133 43.459 6.642 41.819C6.53267 40.1243 6.314 38.5937 5.986 37.227C5.33 37.391 4.838 37.473 4.51 37.473C4.182 37.473 3.936 37.391 3.772 37.227C3.608 37.0083 3.526 36.6257 3.526 36.079C3.526 34.9857 3.63533 33.8923 3.854 32.799C4.12733 31.651 4.53733 30.6943 5.084 29.929C5.63067 29.1637 6.25933 28.617 6.97 28.289C7.73533 27.961 8.528 27.7423 9.348 27.633C10.7147 27.469 12.4367 27.3323 14.514 27.223C16.646 27.059 18.86 26.9223 21.156 26.813C23.5067 26.7037 25.6387 26.649 27.552 26.649C30.1213 26.649 32.0073 26.6763 33.21 26.731C34.4673 26.7857 35.424 26.8677 36.08 26.977C37.5013 27.1957 38.212 27.961 38.212 29.273C38.212 30.2023 38.0207 31.0497 37.638 31.815C37.31 32.5257 36.9 33.1817 36.408 33.783C35.8067 34.6577 35.1507 35.2863 34.44 35.669C33.784 35.997 32.9093 36.1063 31.816 35.997C30.8867 35.8877 29.602 35.8057 27.962 35.751C26.3767 35.6417 24.5453 35.587 22.468 35.587C21.5933 35.587 20.4453 35.6143 19.024 35.669C17.6027 35.7237 16.0993 35.8057 14.514 35.915C14.4593 37.7737 14.2953 39.9057 14.022 42.311C13.7487 44.6617 13.448 47.067 13.12 49.527C14.596 49.4177 16.3727 49.3357 18.45 49.281C20.5273 49.1717 22.6593 49.0897 24.846 49.035C27.0327 48.9803 28.9733 48.953 30.668 48.953C31.652 48.953 32.3627 49.0897 32.8 49.363C33.2373 49.5817 33.456 50.101 33.456 50.921C33.456 51.8503 33.21 52.8617 32.718 53.955C32.2807 54.9937 31.6793 55.8957 30.914 56.661C30.2033 57.4263 29.438 57.7817 28.618 57.727C27.2513 57.6177 25.3107 57.5357 22.796 57.481C20.336 57.4263 17.7393 57.399 15.006 57.399H12.382C12.2727 58.6017 12.1633 59.8043 12.054 61.007C11.9993 62.155 11.972 63.221 11.972 64.205C11.972 66.1183 12.1633 67.813 12.546 69.289C12.9287 70.7103 13.6667 71.9403 14.76 72.979C15.4707 73.6897 15.826 74.5097 15.826 75.439C15.826 76.6417 15.1427 77.735 13.776 78.719C12.4093 79.703 10.66 80.195 8.528 80.195ZM50.1052 80.441C46.3332 80.441 43.2992 79.4297 41.0032 77.407C38.7619 75.3297 37.6412 72.2957 37.6412 68.305C37.6412 66.4463 37.8872 64.6423 38.3792 62.893C38.9259 61.1437 39.6365 59.5037 40.5112 57.973C39.6365 58.5197 38.9805 58.793 38.5432 58.793C37.8872 58.793 37.4225 58.4377 37.1492 57.727C36.9305 56.9617 36.8212 56.2237 36.8212 55.513C36.8212 54.2557 37.0672 53.2717 37.5592 52.561C38.1059 51.7957 38.6252 51.2217 39.1172 50.839C40.2652 49.855 42.0692 48.789 44.5292 47.641C46.9892 46.4383 49.9412 45.837 53.3852 45.837C58.0865 45.837 61.7219 47.149 64.2912 49.773C66.9152 52.397 68.2272 56.0597 68.2272 60.761C68.2272 64.4237 67.4619 67.7583 65.9312 70.765C64.4005 73.717 62.2685 76.0677 59.5352 77.817C56.8565 79.5663 53.7132 80.441 50.1052 80.441ZM52.6472 72.077C55.3805 72.077 57.6765 71.2297 59.5352 69.535C61.4485 67.7857 62.4052 65.4897 62.4052 62.647C62.4052 59.695 61.4485 57.5903 59.5352 56.333C57.6219 55.0757 55.4079 54.447 52.8932 54.447C51.7452 54.447 50.7065 54.5563 49.7772 54.775C48.8479 54.9937 47.9732 55.267 47.1532 55.595C46.3879 56.6883 45.7045 57.9183 45.1032 59.285C44.5019 60.6517 44.2012 62.155 44.2012 63.795C44.2012 66.5283 45.0212 68.6057 46.6612 70.027C48.3012 71.3937 50.2965 72.077 52.6472 72.077ZM87.5017 80.441C83.7297 80.441 80.6957 79.4297 78.3997 77.407C76.1584 75.3297 75.0377 72.2957 75.0377 68.305C75.0377 66.4463 75.2837 64.6423 75.7757 62.893C76.3224 61.1437 77.033 59.5037 77.9077 57.973C77.033 58.5197 76.377 58.793 75.9397 58.793C75.2837 58.793 74.819 58.4377 74.5457 57.727C74.327 56.9617 74.2177 56.2237 74.2177 55.513C74.2177 54.2557 74.4637 53.2717 74.9557 52.561C75.5024 51.7957 76.0217 51.2217 76.5137 50.839C77.6617 49.855 79.4657 48.789 81.9257 47.641C84.3857 46.4383 87.3377 45.837 90.7817 45.837C95.483 45.837 99.1184 47.149 101.688 49.773C104.312 52.397 105.624 56.0597 105.624 60.761C105.624 64.4237 104.858 67.7583 103.328 70.765C101.797 73.717 99.665 76.0677 96.9317 77.817C94.253 79.5663 91.1097 80.441 87.5017 80.441ZM90.0437 72.077C92.777 72.077 95.073 71.2297 96.9317 69.535C98.845 67.7857 99.8017 65.4897 99.8017 62.647C99.8017 59.695 98.845 57.5903 96.9317 56.333C95.0184 55.0757 92.8044 54.447 90.2897 54.447C89.1417 54.447 88.103 54.5563 87.1737 54.775C86.2444 54.9937 85.3697 55.267 84.5497 55.595C83.7844 56.6883 83.101 57.9183 82.4997 59.285C81.8984 60.6517 81.5977 62.155 81.5977 63.795C81.5977 66.5283 82.4177 68.6057 84.0577 70.027C85.6977 71.3937 87.693 72.077 90.0437 72.077ZM122.192 80.441C118.912 80.441 116.316 79.3477 114.402 77.161C112.544 74.9743 111.614 71.995 111.614 68.223C111.614 65.435 112.052 62.7017 112.926 60.023C113.856 57.3443 115.14 54.939 116.78 52.807C118.42 50.675 120.334 48.9803 122.52 47.723C124.707 46.4657 127.085 45.837 129.654 45.837C131.294 45.837 132.743 46.083 134 46.575C135.312 47.067 136.46 47.6957 137.444 48.461C137.39 44.7437 137.198 41.409 136.87 38.457C136.542 35.505 135.75 32.7717 134.492 30.257C134.274 29.8197 134.082 29.437 133.918 29.109C133.809 28.7263 133.754 28.371 133.754 28.043C133.754 27.2777 134.055 26.567 134.656 25.911C135.312 25.255 136.105 24.7083 137.034 24.271C137.964 23.8337 138.838 23.615 139.658 23.615C141.134 23.615 142.228 24.271 142.938 25.583C143.704 26.8403 144.196 28.5897 144.414 30.831C144.633 33.0177 144.742 35.5323 144.742 38.375C144.742 42.5297 144.551 46.2743 144.168 49.609C143.786 52.9437 143.43 55.8683 143.102 58.383C142.884 60.023 142.692 61.4443 142.528 62.647C142.364 63.8497 142.282 64.8337 142.282 65.599C142.282 69.4803 143.95 71.7763 147.284 72.487C148.159 72.651 148.596 73.225 148.596 74.209C148.596 74.8103 148.405 75.5757 148.022 76.505C147.694 77.4343 147.066 78.2817 146.136 79.047C145.207 79.7577 143.868 80.113 142.118 80.113C139.768 80.113 138.182 79.3203 137.362 77.735C136.542 76.1497 136.132 73.7443 136.132 70.519C134.602 73.307 132.661 75.6577 130.31 77.571C127.96 79.4843 125.254 80.441 122.192 80.441ZM124.734 71.667C126.265 71.667 127.796 71.175 129.326 70.191C130.857 69.207 132.224 67.8677 133.426 66.173C134.137 65.1343 134.766 63.959 135.312 62.647C135.914 61.2803 136.46 59.9137 136.952 58.547C134.164 56.0323 131.076 54.775 127.686 54.775C124.734 54.775 122.384 55.677 120.634 57.481C118.885 59.2303 118.01 61.417 118.01 64.041C118.01 66.2823 118.666 68.1137 119.978 69.535C121.29 70.9563 122.876 71.667 124.734 71.667Z" fill="black"/>
<path d="M234.093 99.007C232.453 99.007 231.168 98.5423 230.239 97.613C229.309 96.7383 228.845 95.1257 228.845 92.775C228.845 91.1897 229.009 89.1943 229.337 86.789C229.719 84.3837 230.157 81.8417 230.649 79.163C231.031 77.031 231.387 74.7897 231.715 72.439C232.097 70.0883 232.398 67.7923 232.617 65.551C232.89 63.255 233.027 61.205 233.027 59.401C233.027 57.3237 232.781 55.5197 232.289 53.989C231.851 52.4583 230.922 51.4743 229.501 51.037C228.954 50.8183 228.462 50.5723 228.025 50.299C227.587 50.0257 227.369 49.5883 227.369 48.987C227.369 48.2217 227.669 47.3743 228.271 46.445C228.872 45.5157 229.719 44.723 230.813 44.067C231.961 43.3563 233.245 43.001 234.667 43.001C236.525 43.001 237.81 43.657 238.521 44.969C239.231 46.2263 239.587 47.8937 239.587 49.971C239.587 50.5723 239.559 51.201 239.505 51.857C239.45 52.4583 239.368 53.087 239.259 53.743C240.844 50.6817 242.921 48.1123 245.491 46.035C248.115 43.903 251.067 42.837 254.347 42.837C257.627 42.837 260.196 43.9577 262.055 46.199C263.968 48.3857 264.925 51.365 264.925 55.137C264.925 57.925 264.487 60.6583 263.613 63.337C262.738 65.961 261.508 68.339 259.923 70.471C258.337 72.603 256.424 74.2977 254.183 75.555C251.996 76.8123 249.536 77.441 246.803 77.441C244.835 77.441 243.113 77.0857 241.637 76.375C240.161 75.719 238.876 74.8443 237.783 73.751C237.564 75.1723 237.345 76.8943 237.127 78.917C236.963 80.9397 236.881 82.8257 236.881 84.575C236.881 86.5977 237.099 88.183 237.537 89.331C238.029 90.479 238.958 91.3537 240.325 91.955C240.926 92.2283 241.227 92.6657 241.227 93.267C241.227 93.7043 241.008 94.3877 240.571 95.317C240.133 96.2463 239.395 97.0937 238.357 97.859C237.373 98.6243 235.951 99.007 234.093 99.007ZM248.689 68.585C251.805 68.585 254.21 67.601 255.905 65.633C257.599 63.665 258.447 61.3963 258.447 58.827C258.447 56.5857 257.845 54.8637 256.643 53.661C255.44 52.4037 253.827 51.775 251.805 51.775C249.727 51.775 247.896 52.4037 246.311 53.661C244.725 54.8637 243.359 56.449 242.211 58.417C241.117 60.385 240.215 62.4897 239.505 64.731C242.238 67.3003 245.299 68.585 248.689 68.585ZM283.18 77.441C279.845 77.441 277.44 76.3477 275.964 74.161C274.542 71.9197 273.832 69.0497 273.832 65.551C273.832 64.2937 273.886 63.0637 273.996 61.861C274.16 60.6583 274.324 59.4557 274.488 58.253C274.652 57.0503 274.816 55.875 274.98 54.727C275.144 53.579 275.28 52.4857 275.39 51.447C274.242 51.775 273.094 51.939 271.946 51.939C270.743 51.939 270.142 51.447 270.142 50.463C270.142 49.4243 270.606 48.167 271.536 46.691C272.465 45.1603 273.613 43.657 274.98 42.181C276.401 40.705 277.795 39.475 279.162 38.491C280.583 37.4523 281.786 36.933 282.77 36.933C283.972 36.933 284.574 37.9717 284.574 40.049C284.574 40.5957 284.519 41.1697 284.41 41.771C284.355 42.3177 284.273 42.8917 284.164 43.493C285.202 43.2743 286.241 43.083 287.28 42.919C288.373 42.755 289.412 42.673 290.396 42.673C291.653 42.673 292.61 42.8917 293.266 43.329C293.976 43.7663 294.332 44.6137 294.332 45.871C294.332 47.183 294.004 48.495 293.348 49.807C292.746 51.119 292.063 51.775 291.298 51.775C291.134 51.775 290.86 51.7477 290.478 51.693C290.095 51.6383 289.63 51.5563 289.084 51.447C288.373 51.283 287.471 51.119 286.378 50.955C285.284 50.791 283.972 50.709 282.442 50.709C282.059 52.4037 281.704 54.153 281.376 55.957C281.102 57.7063 280.966 59.2917 280.966 60.713C280.966 63.8837 281.758 66.043 283.344 67.191C284.929 68.339 287.225 68.913 290.232 68.913C291.161 68.913 291.817 69.077 292.2 69.405C292.582 69.6783 292.774 70.1977 292.774 70.963C292.774 72.767 291.844 74.2977 289.986 75.555C288.127 76.8123 285.858 77.441 283.18 77.441ZM305.563 35.621C304.032 35.5663 302.802 35.1017 301.873 34.227C300.943 33.3523 300.479 32.1223 300.479 30.537C300.533 28.8423 301.107 27.4757 302.201 26.437C303.294 25.3437 304.688 24.8243 306.383 24.879C307.968 24.9337 309.198 25.3983 310.073 26.273C311.002 27.1477 311.439 28.3777 311.385 29.963C311.33 31.603 310.783 32.9697 309.745 34.063C308.706 35.1017 307.312 35.621 305.563 35.621ZM305.645 77.195C304.005 77.195 302.72 76.7577 301.791 75.883C300.861 74.9537 300.397 73.3957 300.397 71.209C300.397 69.9517 300.506 68.7217 300.725 67.519C300.998 66.3163 301.299 65.141 301.627 63.993C302.009 62.7903 302.31 61.5603 302.529 60.303C302.802 59.0457 302.939 57.7063 302.939 56.285C302.939 55.301 302.802 54.3717 302.529 53.497C302.255 52.5677 301.654 51.8843 300.725 51.447C300.014 51.0643 299.385 50.6817 298.839 50.299C298.347 49.8617 298.101 49.315 298.101 48.659C298.101 47.8937 298.456 47.0737 299.167 46.199C299.877 45.3243 300.807 44.5863 301.955 43.985C303.157 43.329 304.387 43.001 305.645 43.001C307.011 43.001 307.995 43.3563 308.597 44.067C309.253 44.7777 309.69 45.6797 309.909 46.773C310.127 47.8663 310.237 48.987 310.237 50.135C310.237 51.8843 310.1 53.6063 309.827 55.301C309.553 56.941 309.28 58.4717 309.007 59.893C308.788 60.9317 308.624 61.8883 308.515 62.763C308.405 63.6377 308.351 64.4577 308.351 65.223C308.351 66.5897 308.679 67.6283 309.335 68.339C309.991 68.995 310.92 69.6237 312.123 70.225C312.615 70.4983 312.861 70.9083 312.861 71.455C312.861 71.8923 312.642 72.5757 312.205 73.505C311.767 74.4343 311.002 75.2817 309.909 76.047C308.87 76.8123 307.449 77.195 305.645 77.195ZM323.606 77.277C321.638 77.277 320.764 76.621 320.982 75.309C321.584 72.9583 322.076 70.5803 322.458 68.175C322.896 65.715 323.114 63.3643 323.114 61.123C323.114 58.2257 322.923 56.121 322.54 54.809C322.212 53.4423 321.748 52.513 321.146 52.021C320.545 51.4743 319.807 51.0643 318.932 50.791C318.55 50.627 318.194 50.4083 317.866 50.135C317.593 49.8617 317.456 49.479 317.456 48.987C317.456 48.2217 317.757 47.3743 318.358 46.445C318.96 45.5157 319.807 44.723 320.9 44.067C322.048 43.3563 323.333 43.001 324.754 43.001C326.613 43.001 327.898 43.657 328.608 44.969C329.319 46.2263 329.674 47.8937 329.674 49.971C329.674 51.3377 329.538 52.8683 329.264 54.563C328.991 56.2577 328.718 57.7883 328.444 59.155L328.608 59.237C329.483 56.3397 330.549 53.661 331.806 51.201C333.118 48.741 334.676 46.7457 336.48 45.215C338.339 43.6843 340.471 42.919 342.876 42.919C345.336 42.919 347.277 43.7663 348.698 45.461C350.12 47.101 350.83 49.5337 350.83 52.759V54.563C352.416 51.2283 354.329 48.4403 356.57 46.199C358.866 43.9577 361.627 42.837 364.852 42.837C367.476 42.837 369.526 43.7117 371.002 45.461C372.478 47.2103 373.216 49.397 373.216 52.021C373.216 53.0597 373.107 54.071 372.888 55.055C372.67 55.9843 372.424 56.9137 372.15 57.843C371.932 58.7177 371.713 59.6197 371.494 60.549C371.276 61.4783 371.166 62.4077 371.166 63.337C371.166 66.617 372.56 68.749 375.348 69.733C375.731 69.897 376.032 70.0883 376.25 70.307C376.469 70.471 376.578 70.799 376.578 71.291C376.578 71.783 376.414 72.4937 376.086 73.423C375.813 74.3523 375.239 75.227 374.364 76.047C373.49 76.8123 372.232 77.195 370.592 77.195C368.46 77.195 366.82 76.4297 365.672 74.899C364.524 73.3137 363.95 71.3183 363.95 68.913C363.95 67.7103 364.06 66.453 364.278 65.141C364.497 63.829 364.77 62.5717 365.098 61.369C365.372 60.2757 365.59 59.237 365.754 58.253C365.973 57.269 366.082 56.4217 366.082 55.711C366.082 54.399 365.754 53.4423 365.098 52.841C364.497 52.2397 363.677 51.939 362.638 51.939C360.889 51.939 359.304 52.4857 357.882 53.579C356.516 54.6723 355.286 56.0937 354.192 57.843C353.154 59.5923 352.252 61.5057 351.486 63.583C351.541 64.075 351.568 64.731 351.568 65.551C351.623 66.3163 351.65 66.9997 351.65 67.601C351.65 68.6397 351.568 69.733 351.404 70.881C351.295 72.029 351.049 72.9857 350.666 73.751C350.229 74.7897 349.573 75.637 348.698 76.293C347.878 76.949 346.758 77.277 345.336 77.277C344.735 77.277 344.161 77.1403 343.614 76.867C343.068 76.6483 342.794 76.2657 342.794 75.719C342.794 75.5003 342.958 74.5437 343.286 72.849C343.614 71.0997 343.942 68.9677 344.27 66.453C344.598 63.9383 344.762 61.4783 344.762 59.073C344.762 56.449 344.489 54.645 343.942 53.661C343.396 52.6223 342.576 52.103 341.482 52.103C340.116 52.103 338.804 52.677 337.546 53.825C336.344 54.973 335.223 56.449 334.184 58.253C333.2 60.057 332.326 61.943 331.56 63.911C330.85 65.879 330.276 67.7103 329.838 69.405V70.307C329.838 72.3297 329.264 73.997 328.116 75.309C327.023 76.621 325.52 77.277 323.606 77.277ZM391.964 77.441C388.684 77.441 386.032 76.4297 384.01 74.407C382.042 72.3297 381.058 69.3777 381.058 65.551C381.058 62.8177 381.577 60.1117 382.616 57.433C383.709 54.6997 385.267 52.2397 387.29 50.053C389.312 47.8663 391.745 46.117 394.588 44.805C397.43 43.493 400.628 42.837 404.182 42.837C407.462 42.837 410.25 43.411 412.546 44.559C414.896 45.6523 416.072 47.1557 416.072 49.069C416.072 49.561 416.017 50.217 415.908 51.037C415.798 51.8023 415.662 52.431 415.498 52.923C415.334 53.3603 415.088 53.7703 414.76 54.153C414.486 54.481 414.104 54.645 413.612 54.645C413.393 54.645 412.983 54.563 412.382 54.399C412.163 55.547 411.999 56.6677 411.89 57.761C411.78 58.8543 411.726 59.9477 411.726 61.041C411.726 63.1183 412.026 64.977 412.628 66.617C413.284 68.2023 414.541 69.1863 416.4 69.569C416.892 69.6783 417.274 69.8423 417.548 70.061C417.876 70.2797 418.04 70.7443 418.04 71.455C418.04 72.0563 417.876 72.8217 417.548 73.751C417.274 74.6803 416.7 75.5277 415.826 76.293C415.006 77.0037 413.803 77.359 412.218 77.359C410.086 77.359 408.446 76.5937 407.298 75.063C406.15 73.4777 405.576 71.2363 405.576 68.339C404.1 71.0177 402.214 73.2043 399.918 74.899C397.676 76.5937 395.025 77.441 391.964 77.441ZM394.588 68.913C396.774 68.913 398.688 68.2297 400.328 66.863C402.022 65.4963 403.334 63.7743 404.264 61.697C404.865 60.385 405.33 58.9637 405.658 57.433C405.986 55.8477 406.204 54.2897 406.314 52.759C405.384 52.3217 404.318 51.9663 403.116 51.693C401.913 51.4197 400.656 51.283 399.344 51.283C396.009 51.283 393.248 52.267 391.062 54.235C388.93 56.203 387.864 58.663 387.864 61.615C387.864 63.8017 388.465 65.5783 389.668 66.945C390.87 68.257 392.51 68.913 394.588 68.913Z" fill="black"/>
<ellipse cx="186.481" cy="51.8134" rx="38.5668" ry="38.6696" transform="rotate(26.4939 186.481 51.8134)" fill="#FD5C2E"/>
<g clip-path="url(#clip0_724_67)">
<path d="M207.797 73.797C201.894 79.6707 193.906 82.9681 185.578 82.9681C177.251 82.9681 169.262 79.6707 163.36 73.797C163.247 73.6917 163.158 73.5646 163.096 73.4233C163.035 73.282 163.003 73.1297 163.003 72.9757C163.003 72.8218 163.035 72.6694 163.096 72.5282C163.158 72.3869 163.247 72.2597 163.36 72.1545L166.667 68.802C166.877 68.5958 167.16 68.4804 167.455 68.4804C167.749 68.4804 168.032 68.5958 168.242 68.802C170.511 71.0697 173.205 72.8683 176.169 74.0951C179.134 75.3218 182.311 75.9527 185.519 75.9516C188.727 75.9506 191.903 75.3177 194.867 74.089C197.831 72.8603 200.523 71.06 202.791 68.7907C205.059 66.5215 206.857 63.8278 208.084 60.8635C209.311 57.8991 209.941 54.7222 209.94 51.514C209.939 48.3059 209.306 45.1293 208.078 42.1658C206.849 39.2023 205.049 36.5097 202.78 34.242C202.573 34.0317 202.458 33.749 202.458 33.4545C202.458 33.16 202.573 32.8773 202.78 32.667L206.155 29.3595C206.26 29.2471 206.387 29.1575 206.528 29.0962C206.669 29.035 206.822 29.0034 206.976 29.0034C207.13 29.0034 207.282 29.035 207.423 29.0962C207.565 29.1575 207.692 29.2471 207.797 29.3595C213.671 35.2623 216.968 43.2509 216.968 51.5782C216.968 59.9056 213.671 67.8941 207.797 73.797Z" fill="#FFF7CB"/>
<path d="M200.71 36.4475C200.503 36.2312 200.221 36.1024 199.923 36.0875C199.753 36.072 199.583 36.0942 199.423 36.1526C199.264 36.2109 199.119 36.304 199 36.425L170.425 65C170.316 65.1089 170.229 65.2388 170.171 65.3819C170.113 65.5249 170.085 65.6782 170.088 65.8325C170.102 66.1314 170.231 66.4132 170.448 66.62C174.516 70.287 179.836 72.254 185.312 72.116C190.788 71.978 196.002 69.7454 199.881 65.8781C203.759 62.0108 206.007 56.8033 206.162 51.3282C206.316 45.853 204.365 40.5271 200.71 36.4475ZM179.875 67.7C178.66 67.7 177.625 66.2375 177.625 64.415C177.625 62.5925 178.593 61.1525 179.875 61.1525C181.158 61.1525 182.125 62.615 182.125 64.415C182.125 66.215 181 67.7 179.875 67.7ZM194.5 60.5C193.645 61.355 191.913 60.995 190.63 59.7125C189.348 58.43 189.078 56.7875 190 56C190.923 55.2125 192.565 55.4825 193.848 56.765C195.13 58.0475 195.423 59.7125 194.5 60.5ZM198.348 47.99C196.548 47.99 195.085 47.0225 195.085 45.74C195.085 44.4575 196.548 43.49 198.348 43.49C200.148 43.49 201.633 44.48 201.633 45.74C201.633 47 200.238 48.0575 198.415 48.0575L198.348 47.99Z" fill="#FFF7CB"/>
</g>
<defs>
<clipPath id="clip0_724_67">
<rect width="54" height="54" fill="white" transform="translate(163 29)"/>
</clipPath>
</defs>
</svg>
